<svg
  height="82.06146850585938"
  version="1.1"
  width="558.913571395874"
  xmlns="http://www.w3.org/2000/svg"
  xmlns:xlink="http://www.w3.org/1999/xlink"
  style="overflow: hidden; position: relative; top: -0.796875px"
  viewBox="1.7426883697509723 93.23469679565429 558.913571395874 82.06146850585938"
  preserveAspectRatio="xMinYMin"
  id="main_svg"
>
  <defs style="-webkit-tap-highlight-color: rgba(0, 0, 0, 0)"></defs>
  <path
    fill="#223550"
    stroke="none"
    d="M-9.89,-16.46L-9.89,-6Q-9.89,-4.85,-10.03,-4.03Q-10.18,-3.22,-10.61,-2.18Q-11.04,-1.15,-12.12,-0.58Q-13.2,0,-14.88,0L-20.45,0Q-22.13,0,-23.21,-0.58Q-24.29,-1.15,-24.72,-2.18Q-25.15,-3.22,-25.3,-4.03Q-25.44,-4.85,-25.44,-6L-25.44,-27.6Q-25.44,-28.75,-25.3,-29.57Q-25.15,-30.38,-24.72,-31.42Q-24.29,-32.45,-23.21,-33.02Q-22.13,-33.6,-20.45,-33.6L-14.88,-33.6Q-13.2,-33.6,-12.12,-33.02Q-11.04,-32.45,-10.61,-31.42Q-10.18,-30.38,-10.03,-29.57Q-9.89,-28.75,-9.89,-27.6L-9.89,-22.85L-16.61,-22.85L-16.61,-28.8Q-16.61,-29.23,-16.92,-29.57Q-17.23,-29.9,-17.66,-29.9Q-18.05,-29.9,-18.38,-29.64Q-18.72,-29.38,-18.72,-28.8L-18.72,-4.8Q-18.72,-4.22,-18.38,-3.96Q-18.05,-3.7,-17.66,-3.7Q-17.23,-3.7,-16.92,-4.03Q-16.61,-4.37,-16.61,-4.8L-16.61,-12.77L-17.62,-12.77L-17.62,-16.46L-9.89,-16.46ZM-5.95,0L-5.95,-33.6L0.77,-33.6L0.77,-3.7L6.82,-3.7L6.82,0L-5.95,0ZM9.89,-6L9.89,-27.6Q9.89,-28.75,10.03,-29.57Q10.18,-30.38,10.61,-31.42Q11.04,-32.45,12.12,-33.02Q13.2,-33.6,14.88,-33.6L20.45,-33.6Q22.13,-33.6,23.21,-33.02Q24.29,-32.45,24.72,-31.42Q25.15,-30.38,25.3,-29.57Q25.44,-28.75,25.44,-27.6L25.44,-6Q25.44,-4.85,25.3,-4.03Q25.15,-3.22,24.72,-2.18Q24.29,-1.15,23.21,-0.58Q22.13,0,20.45,0L14.88,0Q13.2,0,12.12,-0.58Q11.04,-1.15,10.61,-2.18Q10.18,-3.22,10.03,-4.03Q9.89,-4.85,9.89,-6M18.72,-4.8L18.72,-28.8Q18.72,-29.23,18.41,-29.57Q18.1,-29.9,17.66,-29.9Q17.28,-29.9,16.94,-29.64Q16.61,-29.38,16.61,-28.8L16.61,-4.8Q16.61,-4.22,16.94,-3.96Q17.28,-3.7,17.66,-3.7Q18.1,-3.7,18.41,-4.03Q18.72,-4.37,18.72,-4.8Z"
    transform="matrix(1.56,0,0,1.56,44.5,158.5547)"
    style="-webkit-tap-highlight-color: rgba(0, 0, 0, 0)"
    stroke-width="1"
  ></path>
  <path
    fill="#221d0f"
    stroke="#000000"
    d="M124.5,80.306A44.283,44.283,0,0,1,112.234,110.624L112.30199999999999,110.689L110.425,112.448C110.216,112.648,109.99799999999999,112.827,109.786,113.01899999999999L109.56400000000001,113.219Q108.864,113.839,108.15100000000001,114.425A6.685,6.685,0,0,1,107.95100000000001,114.586Q107.20700000000001,115.18599999999999,106.441,115.756L106.284,115.871Q105.491,116.454,104.674,117.00099999999999L104.55000000000001,117.08299999999998Q103.71400000000001,117.63599999999998,102.85800000000002,118.15099999999998L102.74200000000002,118.22099999999998Q101.88300000000002,118.73399999999998,101.00300000000001,119.20499999999997L100.86000000000001,119.28199999999997Q99.99600000000001,119.74099999999997,99.11400000000002,120.16199999999996L98.91400000000002,120.26199999999996Q98.06300000000002,120.66199999999996,97.19800000000002,121.02399999999996L96.90400000000002,121.14699999999996Q96.08300000000003,121.48499999999996,95.24800000000002,121.78799999999997C95.11300000000001,121.83699999999997,94.97900000000001,121.88799999999996,94.84800000000001,121.93499999999997Q94.06500000000001,122.21099999999997,93.27100000000002,122.45699999999998C93.09700000000001,122.51099999999998,92.92400000000002,122.56699999999998,92.75000000000001,122.61899999999999C92.25500000000001,122.76699999999998,91.75700000000002,122.90199999999999,91.25700000000002,123.03299999999999C91.04500000000002,123.088,90.83500000000002,123.14499999999998,90.62200000000001,123.198C90.15200000000002,123.312,89.67900000000002,123.41499999999999,89.20500000000001,123.51499999999999C88.96100000000001,123.56599999999999,88.71800000000002,123.62099999999998,88.47200000000001,123.66799999999999C88.019,123.755,87.563,123.83,87.10700000000001,123.90299999999999C86.84000000000002,123.946,86.57400000000001,123.993,86.30700000000002,124.03099999999999C85.85500000000002,124.09499999999998,85.40000000000002,124.145,84.94600000000001,124.195C84.67200000000001,124.225,84.4,124.26199999999999,84.12500000000001,124.28699999999999C83.63700000000001,124.332,83.14700000000002,124.35999999999999,82.65600000000002,124.38699999999999C82.41200000000002,124.40099999999998,82.17100000000002,124.42299999999999,81.92600000000002,124.43399999999998Q80.82600000000002,124.48099999999998,79.71000000000002,124.47399999999999A44.026,44.026,0,0,1,52.71000000000002,115.10199999999999L52.697000000000024,115.09199999999998Q51.82600000000002,114.41199999999998,50.986000000000026,113.68399999999998L50.83200000000002,113.55199999999998Q50.047000000000025,112.86799999999998,49.29000000000002,112.14199999999998C49.24500000000002,112.09999999999998,49.19800000000002,112.05999999999999,49.15300000000002,112.01699999999998L47.30000000000002,110.23299999999998L47.35400000000002,110.18199999999997A44.386,44.386,0,0,1,47.77800000000002,49.363999999999976L47.7,49.3L49.577000000000005,47.541999999999994C49.785000000000004,47.34199999999999,50.002,47.163999999999994,50.214000000000006,46.97299999999999L50.44200000000001,46.77299999999999Q51.135000000000005,46.15599999999999,51.849000000000004,45.572999999999986L52.04900000000001,45.408999999999985Q52.79200000000001,44.80899999999998,53.55500000000001,44.24199999999998L53.715,44.12399999999998Q54.508,43.54199999999998,55.323,42.99699999999998L55.449,42.912999999999975Q56.284,42.35899999999997,57.138999999999996,41.84499999999998L57.25599999999999,41.77499999999998Q58.114999999999995,41.26199999999998,58.99499999999999,40.78999999999998L59.13699999999999,40.71399999999998Q60.001999999999995,40.25399999999998,60.88499999999999,39.83299999999998L61.084999999999994,39.732999999999976Q61.93699999999999,39.33299999999998,62.803999999999995,38.96899999999997L63.09499999999999,38.84699999999997Q63.91799999999999,38.50899999999997,64.755,38.20499999999997C64.88799999999999,38.15599999999997,65.021,38.10499999999997,65.155,38.05899999999997A43.634,43.634,0,0,1,66.736,37.535999999999966C66.908,37.481999999999964,67.08,37.426999999999964,67.253,37.374999999999964C67.753,37.22699999999996,68.253,37.090999999999966,68.753,36.96099999999996C68.963,36.90599999999996,69.172,36.84899999999996,69.384,36.79699999999996C69.855,36.68199999999996,70.329,36.57899999999996,70.805,36.478999999999964C71.048,36.42799999999996,71.29,36.37299999999996,71.534,36.325999999999965C71.988,36.23899999999996,72.44500000000001,36.163999999999966,72.903,36.090999999999966C73.16900000000001,36.047999999999966,73.43400000000001,36.00099999999996,73.703,35.962999999999965C74.156,35.898999999999965,74.61200000000001,35.84899999999997,75.06700000000001,35.798999999999964C75.34,35.76899999999996,75.611,35.731999999999964,75.885,35.706999999999965A39.9,39.9,0,0,1,77.35600000000001,35.606999999999964C77.599,35.59299999999996,77.84,35.57099999999996,78.084,35.55999999999997Q79.184,35.51299999999997,80.3,35.51899999999997Q81.387,35.52699999999997,82.467,35.58699999999997C82.90899999999999,35.61099999999997,83.347,35.65299999999997,83.786,35.68699999999997C84.055,35.70999999999997,84.32600000000001,35.72399999999997,84.59400000000001,35.75199999999997C85.20200000000001,35.813999999999965,85.80600000000001,35.89499999999997,86.40800000000002,35.980999999999966C86.49900000000001,35.993999999999964,86.59200000000001,36.002999999999965,86.68300000000002,36.01699999999997A44.085,44.085,0,0,1,109.28300000000002,46.51699999999997Q110.06700000000002,47.203999999999965,110.82300000000002,47.93099999999997L110.86100000000002,47.96499999999997L112.71400000000001,49.749999999999964L112.66000000000001,49.79999999999996A44.165,44.165,0,0,1,124.50000000000001,80.30599999999995ZM108.648,107.269A39.433,39.433,0,0,0,119.407,84H102.544A79.6,79.6,0,0,1,99.854,101.334A44.49,44.49,0,0,1,108.648,107.269ZM62.237,80H97.769A77.627,77.627,0,0,0,95.595,60.870999999999995A44.571,44.571,0,0,1,65.205,60.864C65.02499999999999,60.797999999999995,64.85,60.721,64.67099999999999,60.653999999999996A77.654,77.654,0,0,0,62.23499999999999,79.86699999999999C62.233999999999995,79.91199999999999,62.236999999999995,79.95499999999998,62.236999999999995,79.99999999999999ZM62.327000000000005,84A75.3,75.3,0,0,0,64.411,99.114A44.465,44.465,0,0,1,95.321,99.327A76.6,76.6,0,0,0,97.627,84H62.327ZM92.369,117.588A38.783,38.783,0,0,0,94.34,116.87599999999999C94.679,116.74399999999999,95.01700000000001,116.609,95.352,116.46799999999999Q96.343,116.04899999999999,97.307,115.582C97.61500000000001,115.43199999999999,97.919,115.27499999999999,98.223,115.11699999999999A39.865,39.865,0,0,0,100.136,114.06199999999998C100.419,113.89499999999998,100.695,113.71599999999998,100.97399999999999,113.54099999999998C101.6,113.14899999999999,102.222,112.75099999999998,102.823,112.32599999999998C103.079,112.14499999999998,103.323,111.94799999999998,103.577,111.76099999999998C104.077,111.38999999999999,104.571,111.01399999999998,105.05199999999999,110.61999999999998A39.638,39.638,0,0,0,98.326,106.08499999999998A40.533,40.533,0,0,1,91.984,117.70599999999997C92.112,117.66499999999998,92.24199999999999,117.62999999999998,92.369,117.58799999999998ZM79.736,119.588C85.37100000000001,119.628,90.536,113.452,93.879,104.026A39.409,39.409,0,0,0,65.825,103.818A47.054,47.054,0,0,0,67.72,108.576C71.013,115.53899999999999,75.4,119.55199999999999,79.736,119.583V119.588ZM54.592000000000006,110.342A39.662,39.662,0,0,0,60.00000000000001,114.152L60.27600000000001,114.313A39.39,39.39,0,0,0,66.019,117.027C66.21900000000001,117.104,66.43,117.178,66.637,117.251C66.915,117.351,67.202,117.429,67.482,117.52300000000001A35.387,35.387,0,0,1,63.297,110.65800000000002A51.444,51.444,0,0,1,61.348,105.81400000000002A39.575,39.575,0,0,0,54.522,110.27900000000002ZM50.96000000000001,106.893A44.491,44.491,0,0,1,59.87800000000001,101.05A79.875,79.875,0,0,1,57.424,84H40.6A39.27,39.27,0,0,0,50.961,106.888ZM51.354000000000006,52.723A39.375,39.375,0,0,0,40.4,79.712V80H57.346000000000004V79.832A81.919,81.919,0,0,1,60.166000000000004,58.64999999999999A44.523,44.523,0,0,1,51.355000000000004,52.718999999999994ZM67.621,42.4C66.94699999999999,42.622,66.28399999999999,42.866,65.62599999999999,43.123C65.29499999999999,43.251999999999995,64.966,43.382999999999996,64.639,43.522999999999996Q63.638999999999996,43.94499999999999,62.666,44.422999999999995C62.366,44.56999999999999,62.065999999999995,44.72299999999999,61.766,44.879C61.114999999999995,45.217999999999996,60.471,45.568999999999996,59.842,45.942C59.562999999999995,46.108,59.289,46.284,59.013999999999996,46.457A40.01,40.01,0,0,0,57.16,47.677C56.903999999999996,47.858,56.66,48.055,56.404999999999994,48.243C55.913,48.609,55.425999999999995,48.981,54.95099999999999,49.369A39.579,39.579,0,0,0,61.7,53.91A51.4,51.4,0,0,1,63.714000000000006,49.093999999999994A35.419,35.419,0,0,1,67.98100000000001,42.294C67.861,42.32899999999999,67.74000000000001,42.361999999999995,67.62100000000001,42.4ZM82.85,40.879999999999995A7.68,7.68,0,0,0,80.27,40.4C75.926,40.37,71.493,44.321,68.107,51.241A47.134,47.134,0,0,0,66.148,55.972A39.413,39.413,0,0,0,94.17999999999999,56.172000000000004A47.133,47.133,0,0,0,92.285,51.414C89.646,45.827,86.307,42.14,82.84899999999999,40.881ZM92.53299999999999,42.464A35.455,35.455,0,0,1,96.707,49.324999999999996A51.416,51.416,0,0,1,98.65599999999999,54.169A39.54,39.54,0,0,0,105.48499999999999,49.702A39.426,39.426,0,0,0,92.53199999999998,42.464999999999996ZM109.045,53.1A44.477,44.477,0,0,1,100.12700000000001,58.943A81.876,81.876,0,0,1,102.659,80H119.60600000000001A39.306,39.306,0,0,0,109.04500000000002,53.1Z"
    stroke-width="2"
    opacity="1"
    transform="matrix(0.8,0,0,0.8,67.0014,69.9993)"
    style="-webkit-tap-highlight-color: rgba(0, 0, 0, 0); opacity: 1"
  ></path>
  <path
    fill="#223550"
    stroke="none"
    d="M-121.85,0L-121.85,-33.6L-111.29,-33.6Q-109.61,-33.6,-108.53,-33.02Q-107.45,-32.45,-107.02,-31.42Q-106.59,-30.38,-106.44,-29.57Q-106.3,-28.75,-106.3,-27.6L-106.3,-22.22Q-106.3,-19.73,-107.67,-18.65Q-109.03,-17.57,-110.86,-17.66L-110.86,-17.33Q-106.3,-17.42,-106.3,-12.77L-106.3,-6Q-106.3,-4.85,-106.44,-4.03Q-106.59,-3.22,-107.02,-2.18Q-107.45,-1.15,-108.53,-0.58Q-109.61,0,-111.29,0L-121.85,0M-115.13,-3.7L-114.27,-3.7Q-113.02,-3.7,-113.02,-5.38L-113.02,-13.78Q-113.02,-15.46,-114.27,-15.46L-115.13,-15.46L-115.13,-3.7M-115.13,-19.15L-114.27,-19.15Q-113.02,-19.15,-113.02,-20.83L-113.02,-28.22Q-113.02,-29.9,-114.27,-29.9L-115.13,-29.9L-115.13,-19.15ZM-103.23,0L-99.72,-33.6L-89.16,-33.6L-85.66,0L-92.23,0L-92.86,-8.93L-96.03,-8.93L-96.65,0L-103.23,0M-95.79,-12.62L-93.1,-12.62L-94.25,-29.47L-94.63,-29.47L-95.79,-12.62ZM-82.59,0L-82.59,-33.6L-75.87,-33.6L-75.87,-3.7L-69.82,-3.7L-69.82,0L-82.59,0ZM-55.56,0L-55.56,-33.6L-45,-33.6Q-43.32,-33.6,-42.24,-33.02Q-41.16,-32.45,-40.73,-31.42Q-40.3,-30.38,-40.15,-29.57Q-40.01,-28.75,-40.01,-27.6L-40.01,-22.22Q-40.01,-19.73,-41.38,-18.65Q-42.75,-17.57,-44.57,-17.66L-44.57,-17.33Q-40.01,-17.42,-40.01,-12.77L-40.01,-6Q-40.01,-4.85,-40.15,-4.03Q-40.3,-3.22,-40.73,-2.18Q-41.16,-1.15,-42.24,-0.58Q-43.32,0,-45,0L-55.56,0M-48.84,-3.7L-47.98,-3.7Q-46.73,-3.7,-46.73,-5.38L-46.73,-13.78Q-46.73,-15.46,-47.98,-15.46L-48.84,-15.46L-48.84,-3.7M-48.84,-19.15L-47.98,-19.15Q-46.73,-19.15,-46.73,-20.83L-46.73,-28.22Q-46.73,-29.9,-47.98,-29.9L-48.84,-29.9L-48.84,-19.15ZM-36.94,0L-33.43,-33.6L-22.87,-33.6L-19.37,0L-25.95,0L-26.57,-8.93L-29.74,-8.93L-30.36,0L-36.94,0M-29.5,-12.62L-26.81,-12.62L-27.96,-29.47L-28.35,-29.47L-29.5,-12.62ZM0.12,0L-6.79,0L-9.1,-12.43L-9.58,-12.43L-9.58,0L-16.3,0L-16.3,-33.6L-5.74,-33.6Q-4.06,-33.6,-2.98,-33.02Q-1.9,-32.45,-1.47,-31.42Q-1.03,-30.38,-0.89,-29.57Q-0.75,-28.75,-0.75,-27.6L-0.75,-17.18Q-0.75,-14.06,-3.19,-13.1L0.12,0M-9.58,-16.13L-8.71,-16.13Q-7.47,-16.13,-7.47,-17.81L-7.47,-28.22Q-7.47,-29.9,-8.71,-29.9L-9.58,-29.9L-9.58,-16.13ZM19.61,0L12.69,0L10.39,-12.43L9.91,-12.43L9.91,0L3.19,0L3.19,-33.6L13.75,-33.6Q15.43,-33.6,16.51,-33.02Q17.59,-32.45,18.02,-31.42Q18.45,-30.38,18.6,-29.57Q18.74,-28.75,18.74,-27.6L18.74,-17.18Q18.74,-14.06,16.29,-13.1L19.61,0M9.91,-16.13L10.77,-16.13Q12.02,-16.13,12.02,-17.81L12.02,-28.22Q12.02,-29.9,10.77,-29.9L9.91,-29.9L9.91,-16.13ZM22.68,0L22.68,-33.6L29.4,-33.6L29.4,0L22.68,0ZM33.33,-11.09L40.05,-11.09L40.05,-4.8Q40.05,-4.22,40.39,-3.96Q40.73,-3.7,41.11,-3.7Q41.54,-3.7,41.85,-4.03Q42.17,-4.37,42.17,-4.8L42.17,-10.03Q42.17,-10.8,41.9,-11.38Q41.64,-11.95,41.33,-12.24Q41.01,-12.53,40.39,-13.01L35.4,-16.8Q33.33,-18.34,33.33,-21.22L33.33,-27.6Q33.33,-28.75,33.48,-29.57Q33.62,-30.38,34.05,-31.42Q34.49,-32.45,35.57,-33.02Q36.65,-33.6,38.33,-33.6L43.89,-33.6Q45.57,-33.6,46.65,-33.02Q47.73,-32.45,48.17,-31.42Q48.6,-30.38,48.74,-29.57Q48.89,-28.75,48.89,-27.6L48.89,-23.18L42.17,-23.18L42.17,-28.8Q42.17,-29.23,41.85,-29.57Q41.54,-29.9,41.11,-29.9Q40.73,-29.9,40.39,-29.64Q40.05,-29.38,40.05,-28.8L40.05,-23.95Q40.05,-23.04,40.25,-22.49Q40.44,-21.94,40.63,-21.74Q40.82,-21.55,41.54,-20.98L46.39,-16.99Q47.69,-15.94,48.29,-14.93Q48.89,-13.92,48.89,-12.29L48.89,-6Q48.89,-4.85,48.74,-4.03Q48.6,-3.22,48.17,-2.18Q47.73,-1.15,46.65,-0.58Q45.57,0,43.89,0L38.33,0Q36.65,0,35.57,-0.58Q34.49,-1.15,34.05,-2.18Q33.62,-3.22,33.48,-4.03Q33.33,-4.85,33.33,-6L33.33,-11.09ZM55.99,0L55.99,-29.9L51.96,-29.9L51.96,-33.6L66.74,-33.6L66.74,-29.9L62.71,-29.9L62.71,0L55.99,0ZM69.81,0L69.81,-33.6L83.45,-33.6L83.45,-29.9L76.53,-29.9L76.53,-19.49L83.45,-19.49L83.45,-15.79L76.53,-15.79L76.53,-3.7L83.73,-3.7L83.73,0L69.81,0ZM103.22,0L96.31,0L94.01,-12.43L93.53,-12.43L93.53,0L86.81,0L86.81,-33.6L97.37,-33.6Q99.05,-33.6,100.13,-33.02Q101.21,-32.45,101.64,-31.42Q102.07,-30.38,102.21,-29.57Q102.36,-28.75,102.36,-27.6L102.36,-17.18Q102.36,-14.06,99.91,-13.1L103.22,0M93.53,-16.13L94.39,-16.13Q95.64,-16.13,95.64,-17.81L95.64,-28.22Q95.64,-29.9,94.39,-29.9L93.53,-29.9L93.53,-16.13ZM106.29,-11.09L113.01,-11.09L113.01,-4.8Q113.01,-4.22,113.35,-3.96Q113.69,-3.7,114.07,-3.7Q114.5,-3.7,114.81,-4.03Q115.13,-4.37,115.13,-4.8L115.13,-10.03Q115.13,-10.8,114.86,-11.38Q114.6,-11.95,114.29,-12.24Q113.97,-12.53,113.35,-13.01L108.36,-16.8Q106.29,-18.34,106.29,-21.22L106.29,-27.6Q106.29,-28.75,106.44,-29.57Q106.58,-30.38,107.01,-31.42Q107.45,-32.45,108.53,-33.02Q109.61,-33.6,111.29,-33.6L116.85,-33.6Q118.53,-33.6,119.61,-33.02Q120.69,-32.45,121.13,-31.42Q121.56,-30.38,121.7,-29.57Q121.85,-28.75,121.85,-27.6L121.85,-23.18L115.13,-23.18L115.13,-28.8Q115.13,-29.23,114.81,-29.57Q114.5,-29.9,114.07,-29.9Q113.69,-29.9,113.35,-29.64Q113.01,-29.38,113.01,-28.8L113.01,-23.95Q113.01,-23.04,113.21,-22.49Q113.4,-21.94,113.59,-21.74Q113.78,-21.55,114.5,-20.98L119.35,-16.99Q120.65,-15.94,121.25,-14.93Q121.85,-13.92,121.85,-12.29L121.85,-6Q121.85,-4.85,121.7,-4.03Q121.56,-3.22,121.13,-2.18Q120.69,-1.15,119.61,-0.58Q118.53,0,116.85,0L111.29,0Q109.61,0,108.53,-0.58Q107.45,-1.15,107.01,-2.18Q106.58,-3.22,106.44,-4.03Q106.29,-4.85,106.29,-6L106.29,-11.09Z"
    transform="matrix(1.56,0,0,1.56,367.5,158.0347)"
    style="-webkit-tap-highlight-color: rgba(0, 0, 0, 0)"
    stroke-width="1"
  ></path>
</svg>
