<svg width="61px" height="79px" viewBox="0 0 61 79" version="1.1" xmlns="http://www.w3.org/2000/svg" xmlns:xlink="http://www.w3.org/1999/xlink">
                    <defs>
                        <filter x="-1.2%" y="-1.9%" width="102.4%" height="105.3%" filterUnits="objectBoundingBox" id="filter-1">
                            <feOffset dx="0" dy="2" in="SourceAlpha" result="shadowOffsetOuter1"></feOffset>
                            <feGaussianBlur stdDeviation="2" in="shadowOffsetOuter1" result="shadowBlurOuter1"></feGaussianBlur>
                            <feColorMatrix values="0 0 0 0 0   0 0 0 0 0   0 0 0 0 0  0 0 0 0.5 0" type="matrix" in="shadowBlurOuter1" result="shadowMatrixOuter1"></feColorMatrix>
                            <feMerge>
                                <feMergeNode in="shadowMatrixOuter1"></feMergeNode>
                                <feMergeNode in="SourceGraphic"></feMergeNode>
                            </feMerge>
                        </filter>
                    </defs>
                    <g id="Page-1" stroke="none" stroke-width="1" fill="none" fill-rule="evenodd">
                        <g id="Mitrax_contacts_22.03.2018-Copy-2" transform="translate(-601.000000, -279.000000)" fill="#0A5A6A" fill-rule="nonzero">
                            <g id="Group-10" filter="url(#filter-1)" transform="translate(350.000000, 247.000000)">
                                <g id="icon-(2)" transform="translate(255.000000, 34.000000)">
                                    <path d="M43.3080872,21.0023228 C33.1688539,27.1031155 25.8608083,34.8080918 22.8936149,38.2322785 L15.2750227,32.3740045 C15.0732807,32.2316082 10.891102,35.8760642 11.0021734,35.9895363 L24.8770329,49.8353542 C24.9790373,49.9488263 25.1195766,50 25.2714498,50 C25.298651,50 25.3417195,50 25.3779877,49.9911002 C25.5593288,49.9510513 25.7134687,49.8309044 25.7814716,49.652909 C28.0165004,44.0438286 35.3970825,32.3005814 44.8222852,23.7835011 C44.9900257,23.6277551 45.0489615,23.3830114 44.9560242,23.1716418 C44.9537575,23.1694169 43.4486265,20.917775 43.3080872,21.0023228 Z" id="Shape"></path>
                                    <path d="M51.9572438,8.60673945 C31.0389234,8.60673945 27.4998722,0.725815612 27.4682736,0.651889948 C27.3147943,0.266580425 26.9356103,0.00896068657 26.5067711,0 C26.5067711,0 26.497743,0 26.4887148,0 C26.0734179,0 25.6897198,0.257619739 25.5226982,0.633968574 C25.4978707,0.716854925 21.8820799,8.60673945 1.04275615,8.60673945 C0.460437782,8.60673945 0,9.07493532 0,9.63945857 L0,44.9535243 C0,59.4093519 25.0171195,70.4533981 26.075675,70.9171136 C26.215612,70.9775983 26.3487778,71 26.5,71 C26.6376799,71 26.7866451,70.9775983 26.9198109,70.9171136 C27.9873946,70.4533981 53,59.4093519 53,44.9535243 L53,9.63945857 C52.9954859,9.07493532 52.5327911,8.60673945 51.9572438,8.60673945 Z M47.2445277,42.8992869 C47.2445277,54.2099135 27.6578656,62.8636966 26.8250149,63.2221241 C26.7234477,63.273648 26.6038242,63.2915694 26.497743,63.2915694 C26.3826335,63.2915694 26.2765523,63.273648 26.168214,63.2221241 C25.3443914,62.8636966 5.75095818,54.2099135 5.75095818,42.8992869 L5.75095818,15.257809 C5.75095818,14.8120149 6.1143429,14.4446267 6.56800954,14.4446267 C22.8842092,14.4446267 25.7122903,8.2707137 25.7393748,8.21022907 C25.8680266,7.91228624 26.1659569,7.71067079 26.4932289,7.71067079 C26.497743,7.71067079 26.5067711,7.71067079 26.5067711,7.71067079 C26.8408142,7.71515113 27.1364875,7.91676658 27.2561111,8.2236701 C27.2831956,8.27967439 30.0548505,14.4446267 46.4274764,14.4446267 C46.881143,14.4446267 47.2422707,14.8120149 47.2422707,15.257809 L47.2445277,42.8992869 Z" id="Shape"></path>
                                </g>
                            </g>
                        </g>
                    </g>
                </svg>